<svg width="64" height="64" viewBox="0 0 64 64" fill="none" xmlns="http://www.w3.org/2000/svg">
<path d="M24.9378 46.6165C23.626 50.5515 20.486 53.4468 15.8575 54.9898C13.7629 55.6831 11.5781 56.0663 9.37253 56.1273C8.9747 56.1273 8.59317 55.9693 8.31187 55.688C8.03056 55.4066 7.87253 55.0251 7.87253 54.6273C7.9336 52.4219 8.31691 50.2373 9.01028 48.1428C10.5533 43.514 13.4488 40.374 17.3835 39.0623C17.5706 38.999 17.7684 38.9734 17.9655 38.9867C18.1625 39.0001 18.355 39.0523 18.5318 39.1402C18.7087 39.2282 18.8664 39.3502 18.996 39.4993C19.1255 39.6484 19.2244 39.8216 19.2869 40.0089C19.3493 40.1963 19.3742 40.3942 19.36 40.5912C19.3458 40.7882 19.2928 40.9804 19.2041 41.1569C19.1154 41.3334 18.9927 41.4906 18.8431 41.6195C18.6935 41.7485 18.5199 41.8466 18.3323 41.9083C12.7648 43.764 11.3523 50.009 10.994 53.002C13.9873 52.637 20.2433 51.2135 22.0915 45.6678C22.2173 45.2904 22.4879 44.9784 22.8438 44.8004C23.02 44.7123 23.2118 44.6598 23.4083 44.6458C23.6048 44.6319 23.8021 44.6567 23.989 44.719C24.1759 44.7813 24.3487 44.8798 24.4975 45.0089C24.6463 45.138 24.7683 45.2951 24.8564 45.4713C24.9445 45.6475 24.997 45.8393 25.011 46.0358C25.0249 46.2323 25.0001 46.4297 24.9378 46.6165ZM50.031 27.404L47.642 29.7928V45.3138C47.6433 45.7736 47.5533 46.229 47.3774 46.6538C47.2014 47.0786 46.943 47.4643 46.617 47.7885L38.5315 55.874C38.0836 56.322 37.5224 56.64 36.9079 56.7941C36.2935 56.9482 35.6487 56.9326 35.0423 56.7491C34.436 56.5655 33.8909 56.2208 33.4651 55.7517C33.0392 55.2826 32.7487 54.7068 32.6245 54.0855L30.618 44.053L19.9468 33.3818L9.91453 31.3753C9.29334 31.2511 8.71751 30.9606 8.24845 30.5348C7.77938 30.109 7.43467 29.5639 7.25106 28.9577C7.06745 28.3514 7.05184 27.7066 7.20589 27.0921C7.35994 26.4777 7.67787 25.9165 8.12578 25.4685L16.2115 17.383C16.5358 17.057 16.9215 16.7986 17.3464 16.6227C17.7712 16.4467 18.2267 16.3568 18.6865 16.358H34.2073L36.5963 13.9688C43.5823 6.98279 50.724 7.18179 53.471 7.59129C54.2119 7.69887 54.8982 8.04302 55.4276 8.57242C55.9569 9.10183 56.301 9.78814 56.4085 10.529C56.8185 13.2755 57.0173 20.4175 50.031 27.404ZM10.503 28.4335L20.1933 30.3718L31.2073 19.358H18.6863C18.6206 19.3578 18.5554 19.3707 18.4947 19.3958C18.434 19.421 18.3789 19.4579 18.3325 19.5045L10.247 27.5895C10.183 27.6536 10.1375 27.7338 10.1155 27.8216C10.0935 27.9094 10.0958 28.0016 10.1221 28.0883C10.1483 28.1749 10.1977 28.2528 10.2648 28.3136C10.3319 28.3744 10.4142 28.4159 10.503 28.4335ZM44.642 32.7928L33.6283 43.8068L35.5665 53.4973C35.5843 53.5861 35.6257 53.6684 35.6866 53.7354C35.7474 53.8024 35.8253 53.8517 35.912 53.8779C35.9986 53.9041 36.0908 53.9064 36.1786 53.8843C36.2664 53.8623 36.3465 53.8168 36.4105 53.7528L44.4958 45.6673C44.5423 45.6209 44.5792 45.5658 44.6043 45.5052C44.6294 45.4445 44.6422 45.3795 44.642 45.3138V32.7928ZM47.91 25.2825C49.9158 23.2765 54.47 17.8665 53.4415 10.972C53.4264 10.8677 53.378 10.7711 53.3035 10.6966C53.229 10.6221 53.1323 10.5736 53.028 10.5585C46.1338 9.52979 40.7235 14.0843 38.7173 16.09L35.8898 18.9175L35.8883 18.9193L22.8075 32L32 41.1925L45.081 28.1115L45.082 28.1103L47.91 25.2825Z" fill="#FF8A00"/>
</svg>
