<svg width="64" height="64" viewBox="0 0 64 64" fill="none" xmlns="http://www.w3.org/2000/svg">
<path d="M31.9999 6C26.8576 6 21.8308 7.52487 17.5551 10.3818C13.2794 13.2387 9.94696 17.2994 7.97908 22.0502C6.0112 26.8011 5.49632 32.0288 6.49953 37.0723C7.50275 42.1159 9.97901 46.7486 13.6152 50.3848C17.2513 54.0209 21.8841 56.4972 26.9276 57.5004C31.9711 58.5036 37.1988 57.9887 41.9497 56.0209C46.7006 54.053 50.7612 50.7205 53.6182 46.4448C56.4751 42.1691 57.9999 37.1423 57.9999 32C57.9921 25.1068 55.2504 18.4981 50.3761 13.6238C45.5018 8.74959 38.8932 6.00781 31.9999 6ZM31.9999 54C27.6488 54 23.3953 52.7097 19.7774 50.2923C16.1595 47.8749 13.3397 44.439 11.6746 40.419C10.0095 36.3991 9.5738 31.9756 10.4227 27.708C11.2715 23.4404 13.3668 19.5204 16.4436 16.4437C19.5204 13.3669 23.4404 11.2716 27.708 10.4227C31.9755 9.57385 36.399 10.0095 40.419 11.6746C44.439 13.3398 47.8749 16.1596 50.2923 19.7775C52.7097 23.3953 53.9999 27.6488 53.9999 32C53.9933 37.8327 51.6734 43.4247 47.549 47.549C43.4246 51.6734 37.8327 53.9934 31.9999 54ZM43.9999 32C43.9999 32.5304 43.7892 33.0391 43.4142 33.4142C43.0391 33.7893 42.5304 34 41.9999 34H33.9999V42C33.9999 42.5304 33.7892 43.0391 33.4142 43.4142C33.0391 43.7893 32.5304 44 31.9999 44C31.4695 44 30.9608 43.7893 30.5857 43.4142C30.2107 43.0391 29.9999 42.5304 29.9999 42V34H21.9999C21.4695 34 20.9608 33.7893 20.5857 33.4142C20.2107 33.0391 19.9999 32.5304 19.9999 32C19.9999 31.4696 20.2107 30.9609 20.5857 30.5858C20.9608 30.2107 21.4695 30 21.9999 30H29.9999V22C29.9999 21.4696 30.2107 20.9609 30.5857 20.5858C30.9608 20.2107 31.4695 20 31.9999 20C32.5304 20 33.0391 20.2107 33.4142 20.5858C33.7892 20.9609 33.9999 21.4696 33.9999 22V30H41.9999C42.5304 30 43.0391 30.2107 43.4142 30.5858C43.7892 30.9609 43.9999 31.4696 43.9999 32Z" fill="#9D54E0"/>
</svg>
