<svg width="64" height="64" viewBox="0 0 64 64" fill="none" xmlns="http://www.w3.org/2000/svg">
<path d="M52.06 30.9387C52.3411 31.2202 52.4988 31.6019 52.4986 31.9997C52.4983 32.3975 52.34 32.7789 52.0585 33.06L31.5453 53.5467C29.0134 56.0784 25.5795 57.5006 21.999 57.5004C18.4185 57.5003 14.9848 56.0778 12.4531 53.5459C9.92148 51.014 8.4993 47.5801 8.49947 43.9996C8.49963 40.4192 9.92212 36.9854 12.454 34.4537L37.2738 9.28874C38.1548 8.4032 39.2018 7.70011 40.3549 7.21971C41.508 6.73931 42.7445 6.49103 43.9936 6.48909C45.2428 6.48714 46.48 6.73157 47.6346 7.20838C48.7892 7.68519 49.8384 8.38502 50.7222 9.26781C51.6059 10.1506 52.3069 11.199 52.785 12.3531C53.2631 13.5071 53.509 14.7441 53.5084 15.9933C53.5079 17.2424 53.261 18.4792 52.7818 19.6328C52.3027 20.7864 51.6008 21.8342 50.7163 22.7162L25.8963 47.8815C25.3873 48.3983 24.7811 48.8092 24.1126 49.0908C23.4441 49.3723 22.7266 49.5188 22.0012 49.5219C21.2759 49.525 20.5571 49.3846 19.8863 49.1087C19.2154 48.8329 18.6058 48.4271 18.0924 47.9147C17.579 47.4022 17.1721 46.7933 16.895 46.123C16.6179 45.4527 16.4761 44.7342 16.4779 44.0088C16.4796 43.2835 16.6248 42.5657 16.9051 41.8967C17.1854 41.2277 17.5952 40.6207 18.111 40.1107L38.9293 18.9467C39.2083 18.6631 39.5885 18.502 39.9864 18.4987C40.3842 18.4954 40.767 18.6504 41.0506 18.9294C41.3343 19.2084 41.4954 19.5886 41.4987 19.9865C41.5019 20.3843 41.347 20.7671 41.068 21.0507L20.241 42.2237C20.0026 42.454 19.8123 42.7294 19.6813 43.0338C19.5503 43.3383 19.4811 43.6658 19.4778 43.9972C19.4745 44.3287 19.5371 44.6575 19.6621 44.9645C19.787 45.2715 19.9718 45.5506 20.2056 45.7855C20.4394 46.0205 20.7176 46.2066 21.024 46.333C21.3304 46.4595 21.6589 46.5237 21.9903 46.5221C22.3218 46.5204 22.6496 46.4528 22.9547 46.3233C23.2598 46.1937 23.5361 46.0048 23.7675 45.7675L48.5875 20.6025C49.1931 19.9997 49.6738 19.2835 50.0023 18.4947C50.3308 17.706 50.5005 16.8602 50.5019 16.0058C50.5032 15.1514 50.336 14.3051 50.01 13.5154C49.684 12.7256 49.2054 12.0079 48.6017 11.4033C47.9981 10.7986 47.2811 10.3189 46.4919 9.99162C45.7027 9.66432 44.8566 9.49582 44.0022 9.49577C43.1478 9.49572 42.3018 9.66412 41.5125 9.99134C40.7233 10.3186 40.0063 10.7982 39.4025 11.4027L14.5825 36.5677C13.607 37.5423 12.833 38.6994 12.3046 39.973C11.7763 41.2467 11.504 42.612 11.5033 43.9909C11.5026 45.3697 11.7735 46.7353 12.3005 48.0095C12.8275 49.2837 13.6004 50.4416 14.5749 51.4171C15.5494 52.3926 16.7065 53.1667 17.9802 53.695C19.2539 54.2233 20.6191 54.4956 21.998 54.4963C23.3769 54.497 24.7424 54.2262 26.0166 53.6991C27.2908 53.1721 28.4487 52.3993 29.4243 51.4247L49.9383 30.9375C50.0776 30.7983 50.2431 30.6878 50.4251 30.6126C50.6072 30.5373 50.8023 30.4986 50.9993 30.4987C51.1963 30.4988 51.3913 30.5377 51.5733 30.6132C51.7552 30.6887 51.9206 30.7993 52.0598 30.9387H52.06Z" fill="#2F80ED"/>
</svg>
