<svg width="64" height="64" viewBox="0 0 64 64" fill="none" xmlns="http://www.w3.org/2000/svg">
<path d="M57 50.5H54.5V10C54.5 9.60218 54.342 9.22064 54.0607 8.93934C53.7794 8.65804 53.3978 8.5 53 8.5H39C38.6022 8.5 38.2206 8.65804 37.9393 8.93934C37.658 9.22064 37.5 9.60218 37.5 10V20.5H25C24.6022 20.5 24.2206 20.658 23.9393 20.9393C23.658 21.2206 23.5 21.6022 23.5 22V32.5H11C10.6022 32.5 10.2206 32.658 9.93934 32.9393C9.65804 33.2206 9.5 33.6022 9.5 34V50.5H7C6.60218 50.5 6.22064 50.658 5.93934 50.9393C5.65804 51.2206 5.5 51.6022 5.5 52C5.5 52.3978 5.65804 52.7794 5.93934 53.0607C6.22064 53.342 6.60218 53.5 7 53.5H57C57.3978 53.5 57.7794 53.342 58.0607 53.0607C58.342 52.7794 58.5 52.3978 58.5 52C58.5 51.6022 58.342 51.2206 58.0607 50.9393C57.7794 50.658 57.3978 50.5 57 50.5ZM26.5 23.5H37.5V50.5H26.5V23.5ZM12.5 35.5H23.5V50.5H12.5V35.5ZM40.5 50.5V11.5H51.5V50.5H40.5Z" fill="#50D38D"/>
</svg>
